#!OML:ASF F:\VICON\USERDATA\INSTALL\rory3\rory3.ASF
:FULLY-SPECIFIED
:DEGREES
62
root 1.42401 17.9371 -15.5035 -6.64072 1.70697 -6.21309
lowerback 16.0851 -0.319666 2.50754
upperback -0.280641 0.424306 3.89633
thorax -9.38194 0.191526 2.69563
lowerneck -11.7186 -1.90675 -2.85069
upperneck 25.4243 -1.9169 -0.50937
head 10.0374 -1.2146 0.0764075
rclavicle -7.82132e-015 -5.48646e-014
rhumerus -36.2683 -9.82312 -77.2351
rradius 27.2491
rwrist 3.7475
rhand -15.3475 11.9707
rfingers 7.12502
rthumb 10.8296 -17.7301
lclavicle -7.82132e-015 -5.48646e-014
lhumerus -41.5259 5.89419 86.016
lradius 33.1117
lwrist 2.91046
lhand -12.758 49.3491
lfingers 7.12502
lthumb 13.3265 78.903
rfemur -3.72376 4.3688 33.7087
rtibia 23.615
rfoot -9.95073 -7.90517
rtoes 16.6567
lfemur -17.1654 -0.109004 -13.5327
ltibia 72.4284
lfoot 7.37396 -3.39511
ltoes -12.7316
63
root 1.4025 17.9199 -15.3554 -6.98439 2.07163 -6.28712
lowerback 15.8605 -0.382343 2.31233
upperback 0.166121 0.281501 4.00711
thorax -8.76212 0.133747 2.94518
lowerneck -12.2006 -1.95685 -3.14806
upperneck 25.2792 -1.95529 -0.302861
head 10.0852 -1.23522 0.190517
rclavicle -1.70147e-014 -1.19271e-015
rhumerus -35.3681 -9.85074 -77.2477
rradius 27.2818
rwrist 3.76253
rhand -15.2166 11.963
rfingers 7.12502
rthumb 10.9558 -17.7311
lclavicle -1.70147e-014 -1.19271e-015
lhumerus -40.9379 6.28362 86.0355
lradius 33.238
lwrist 3.19808
lhand -12.6238 50.639
lfingers 7.12502
lthumb 13.4558 80.1844
rfemur -2.95393 4.21731 33.9852
rtibia 23.8569
rfoot -10.2187 -8.2303
rtoes 14.5761
lfemur -17.8779 -0.33534 -13.4294
ltibia 72.7238
lfoot 6.70146 -2.92343
ltoes -10.5491
64
root 1.39811 17.9064 -15.2276 -7.23862 1.53607 -6.54427
lowerback 16.4213 -0.206021 2.60611
upperback 0.116949 0.605608 4.04184
thorax -9.14204 0.277571 2.75024
lowerneck -12.8886 -1.91312 -2.84512
upperneck 25.9818 -1.83204 -0.688078
head 10.4658 -1.1991 0.00724163
rclavicle 2.50966e-015 -4.53229e-014
rhumerus -35.3793 -9.68299 -77.3069
rradius 27.5144
rwrist 3.58314
rhand -15.3075 11.9197
rfingers 7.12502
rthumb 10.8682 -17.779
lclavicle 2.50966e-015 -4.53229e-014
lhumerus -41.0097 6.49155 85.861
lradius 33.2441
lwrist 3.58461
lhand -12.7425 51.1304
lfingers 7.12502
lthumb 13.3414 80.6833
rfemur -2.32315 4.17613 34.3701
rtibia 24.0767
rfoot -10.7324 -7.95839
rtoes 13.7987
lfemur -18.7317 0.198635 -13.1366
ltibia 72.8871
lfoot 5.13314 -2.71259
ltoes -11.0654
65
root 1.38956 17.8882 -15.085 -7.14003 1.42225 -6.69691
lowerback 16.3782 -0.1341 2.87169
upperback -0.0225541 0.747946 3.94895
thorax -9.27051 0.330945 2.46629
lowerneck -12.7985 -2.00024 -2.76928
upperneck 26.1359 -2.00063 -0.599852
head 10.5063 -1.2596 0.00419919
rclavicle 1.25258e-014 -1.27222e-014
rhumerus -35.4751 -9.63241 -77.4547
rradius 27.7261
rwrist 3.46916
rhand -15.5315 11.9515
rfingers 7.12502
rthumb 10.6521 -17.7585
lclavicle 1.25258e-014 -1.27222e-014
lhumerus -41.0581 6.58771 85.5673
lradius 33.1826
lwrist 4.13373
lhand -13.0507 50.954
lfingers 7.12502
lthumb 13.0443 80.5262
rfemur -1.95989 4.21882 34.6548
rtibia 24.2411
rfoot -11.4647 -8.00746
rtoes 14.0758
lfemur -20.027 0.320799 -13.0022
ltibia 72.9397
lfoot 3.60384 -2.49956
ltoes -12.3291
66
root 1.38401 17.8709 -14.947 -7.12046 1.11584 -6.73514
lowerback 16.2541 0.00029165 2.99801
upperback 0.0615898 0.929071 3.84873
thorax -9.10778 0.409841 2.23876
lowerneck -12.5061 -2.13134 -2.99703
upperneck 25.8577 -2.26531 -0.149633
head 10.3588 -1.34894 0.174195
rclavicle 2.14315e-014 4.49253e-014
rhumerus -35.1402 -9.52695 -77.688
rradius 27.8967
rwrist 3.35696
rhand -15.8579 12.1315
rfingers 7.12502
rthumb 10.3372 -17.5944
lclavicle 2.14315e-014 4.49253e-014
lhumerus -40.8614 6.74356 85.3208
lradius 33.3574
lwrist 4.21045
lhand -12.6545 51.5803
lfingers 7.12502
lthumb 13.4262 81.1276
rfemur -1.44676 4.29594 34.8115
rtibia 24.3014
rfoot -11.8758 -7.99399
rtoes 13.9326
lfemur -21.126 0.52795 -13.0147
ltibia 72.8552
lfoot 2.05491 -2.20099
ltoes -12.8552
67
root 1.3778 17.8544 -14.8193 -7.17409 0.697629 -6.84067
lowerback 16.3929 0.133327 3.06236
upperback 0.0697236 1.12817 3.88004
thorax -9.18073 0.502703 2.1895
lowerneck -12.8532 -2.03936 -2.85417
upperneck 26.0769 -2.11244 -0.309842
head 10.5008 -1.28432 0.107406
rclavicle 8.15172e-015 2.3059e-014
rhumerus -34.9098 -9.17624 -77.8451
rradius 28.3416
rwrist 2.76866
rhand -15.6015 11.9769
rfingers 7.12502
rthumb 10.5846 -17.7365
lclavicle 8.15172e-015 2.3059e-014
lhumerus -41.015 6.92959 85.2377
lradius 33.6475
lwrist 4.4272
lhand -12.8229 51.4943
lfingers 7.12502
lthumb 13.2639 81.0522
rfemur -0.938452 4.34451 35.0336
rtibia 24.4026
rfoot -12.3055 -7.89731
rtoes 14.2045
lfemur -22.1202 0.835372 -12.924
ltibia 72.6153
lfoot 0.731164 -2.07979
ltoes -12.7524
68
root 1.36334 17.8368 -14.6727 -7.28725 1.36756 -7.17694
lowerback 16.4094 -0.157957 3.26603
upperback -0.0678506 0.802665 4.0167
thorax -9.33607 0.340343 2.30441
lowerneck -12.1671 -1.9143 -3.27867
upperneck 25.7807 -1.95296 0.0378633
head 10.2655 -1.21069 0.331427
rclavicle -1.20925e-014 7.55382e-015
rhumerus -34.919 -8.63758 -77.9384
rradius 29.1833
rwrist 1.47299
rhand -14.3151 10.3878
rfingers 7.12502
rthumb 11.8253 -19.2583
lclavicle -1.20925e-014 7.55382e-015
lhumerus -41.4237 7.23261 85.1401
lradius 33.8716
lwrist 4.73247
lhand -12.9548 51.4995
lfingers 7.12502
lthumb 13.1368 81.0657
rfemur -0.350675 4.11675 35.5717
rtibia 24.4547
rfoot -13.1693 -8.46357
rtoes 15.5267
lfemur -23.2065 0.156539 -12.6358
ltibia 72.2323
lfoot -0.376066 -2.18864
ltoes -13.1849
69
root 1.35946 17.8188 -14.545 -7.18367 0.896417 -7.29197
lowerback 16.7001 0.055679 3.45934
upperback -0.0356431 1.13499 3.96736
thorax -9.46636 0.487929 2.06186
lowerneck -13.3613 -2.03454 -3.03894
upperneck 26.3987 -2.0897 -0.129084
head 10.7242 -1.27167 0.199182
rclavicle 1.86182e-014 3.69739e-014
rhumerus -34.4955 -8.76037 -78.0083
rradius 28.6888
rwrist 2.42097
rhand -15.4837 12.7757
rfingers 7.12502
rthumb 10.6982 -16.9319
lclavicle 1.86182e-014 3.69739e-014
lhumerus -41.0177 7.19542 85.076
lradius 33.8721
lwrist 4.80697
lhand -12.8276 51.7442
lfingers 7.12502
lthumb 13.2594 81.3025
rfemur 0.0533643 4.2691 35.7885
rtibia 24.46
rfoot -13.6497 -8.17531
rtoes 15.978
lfemur -24.2097 0.388821 -12.563
ltibia 71.6383
lfoot -1.31309 -1.84809
ltoes -13.3296
70
root 1.35523 17.8054 -14.4099 -7.10358 0.793505 -7.1622
lowerback 16.205 0.192467 3.41084
upperback 0.24592 1.24978 3.86162
thorax -8.87587 0.547469 1.93889
lowerneck -13.5151 -2.15809 -2.9641
upperneck 26.0618 -2.28695 -0.0971239
head 10.6318 -1.34802 0.1721
rclavicle -6.40149e-015 -5.60573e-014
rhumerus -33.8769 -8.7348 -78.1854
rradius 28.9286
rwrist 2.21929
rhand -15.5034 13.2609
rfingers 7.12502
rthumb 10.6792 -16.4477
lclavicle -6.40149e-015 -5.60573e-014
lhumerus -40.575 7.00135 85.1665
lradius 34.1978
lwrist 5.00296
lhand -12.7884 51.6425
lfingers 7.12502
lthumb 13.2972 81.1983
rfemur 0.496135 4.29958 35.7351
rtibia 24.4895
rfoot -14.0909 -8.09725
rtoes 16.1193
lfemur -25.0685 0.26289 -12.8066
ltibia 70.7771
lfoot -2.09065 -1.33692
ltoes -12.3394
